# xmcd
# 
# Track frame offsets:
#     150
#     16177
#     38200
#     55770
#     73920
#     97090
#     117390
#     135072
#     154745
#     165142
#     184392
#     218437
# 
# Disc length: 4440
# 
# Revision: 35
# Processed by: cddbd v1.5.2PL0 Copyright (c) Steve Scherf et al.
# Submitted via: BonkEnc v1.0.5
# 
DISCID=9711560c
DTITLE=大塚 愛 - LOVE PUNCH
DYEAR=2004
DGENRE=JPop
TTITLE0=pretty voice
TTITLE1=桃ノ花ビラ
TTITLE2=さくらんぼ
TTITLE3=GIRLY
TTITLE4=雨の中のメロディー
TTITLE5=しゃぼん玉
TTITLE6=石川大阪友好条約
TTITLE7=片思いダイヤル
TTITLE8=ハニー
TTITLE9=甘えんぼ
TTITLE10=Always Together
TTITLE11=CCCD
EXTD=YEAR: 2004
EXTT0=
EXTT1=
EXTT2=
EXTT3=
EXTT4=
EXTT5=
EXTT6=
EXTT7=
EXTT8=
EXTT9=
EXTT10=
EXTT11=
PLAYORDER=
